<svg xmlns="http://www.w3.org/2000/svg" width="430" height="430" style="width:100%;height:100%;transform:translate3d(0,0,0);content-visibility:visible" viewBox="0 0 430 430"><defs><clipPath id="a"><path d="M0 0h430v430H0z"/></clipPath><clipPath id="d"><path d="M0 0h430v430H0z"/></clipPath><clipPath id="c"><path d="M0 0h430v430H0z"/></clipPath><clipPath id="b"><path d="M0 0h430v430H0z"/></clipPath></defs><g clip-path="url(#a)"><g clip-path="url(#b)" style="display:none"><path class="secondary" style="display:none"/><path class="secondary" style="mix-blend-mode:multiply;display:none"/><path fill="none" class="primary" style="display:none"/><path class="tertiary" style="display:none"/><path class="tertiary" style="mix-blend-mode:multiply;display:none"/><path fill="none" class="primary" style="display:none"/><path class="secondary" style="display:none"/><path fill="none" class="primary" style="display:none"/></g><g clip-path="url(#c)" style="display:block"><g opacity="0" style="display:block"><path fill="#EBE6EE" d="M129.306 379.237c-1.502.697-1.502 1.829 0 2.526l83.007 38.524c1.502.697 3.94.697 5.442 0l83.007-38.524c1.502-.697 1.502-1.829 0-2.526l-83.007-38.524c-1.502-.697-3.94-.697-5.442 0l-83.007 38.524z" class="secondary" opacity="1"/></g><path class="secondary" style="mix-blend-mode:multiply;display:none"/><g opacity="0" style="display:block"><path fill="none" stroke="#121330" stroke-linecap="round" stroke-linejoin="round" stroke-width="7" d="M126.551 381.05 215 422.1l88.449-41.05L215 340l-88.449 41.05z" class="primary" opacity="1"/></g><g style="display:block"><path fill="#EBE6EE" d="M36.655 258.237c-1.502.697-1.502 1.829 0 2.526l175.658 81.524c1.502.697 3.94.697 5.442 0l175.658-81.524c1.502-.697 1.502-1.829 0-2.526l-175.658-81.524c-1.502-.697-3.94-.697-5.442 0L36.655 258.237z" class="secondary"/><path fill="none" d="M36.655 258.237c-1.502.697-1.502 1.829 0 2.526l175.658 81.524c1.502.697 3.94.697 5.442 0l175.658-81.524c1.502-.697 1.502-1.829 0-2.526l-175.658-81.524c-1.502-.697-3.94-.697-5.442 0L36.655 258.237z" class="tertiary"/></g><g opacity=".5" style="mix-blend-mode:multiply;display:block"><path fill="none" d="m215.033 322.05-157.937-73.3 157.937-73.3 157.937 73.3-157.937 73.3z" class="tertiary" opacity="1"/><path fill="#EBE6EE" d="m215.033 322.05-157.937-73.3 157.937-73.3 157.937 73.3-157.937 73.3z" class="secondary" opacity="1"/></g><path fill="none" stroke="#121330" stroke-linecap="round" stroke-linejoin="round" stroke-width="7" d="M-181.1 0 0 84.05 181.1 0 0-84.05-181.1 0z" class="primary" style="display:block" transform="translate(215 260.05)"/><g style="display:block"><path fill="#07A889" d="M36.586 214.237c-1.502.697-1.502 1.829 0 2.526l175.658 81.524c1.502.697 3.94.697 5.442 0l175.658-81.524c1.502-.697 1.502-1.829 0-2.526l-175.658-81.524c-1.502-.697-3.94-.697-5.442 0L36.586 214.237z" class="tertiary"/><path fill="none" d="M36.586 214.237c-1.502.697-1.502 1.829 0 2.526l175.658 81.524c1.502.697 3.94.697 5.442 0l175.658-81.524c1.502-.697 1.502-1.829 0-2.526l-175.658-81.524c-1.502-.697-3.94-.697-5.442 0L36.586 214.237z" class="secondary"/></g><g opacity=".5" style="mix-blend-mode:multiply;display:block"><path fill="#07A889" d="M214.965 277.8 57.297 204.625l157.668-73.175 157.668 73.175L214.965 277.8z" class="tertiary" opacity="1"/></g><path fill="none" stroke="#121330" stroke-linecap="round" stroke-linejoin="round" stroke-width="7" d="M-181.1 0 0 84.05 181.1 0 0-84.05-181.1 0z" class="primary" style="display:block" transform="translate(215 216.05)"/><path fill="#EBE6EE" d="M-178.379-1.263c-1.502.697-1.502 1.829 0 2.526L-2.72 82.787c1.502.697 3.94.697 5.442 0L178.38 1.263c1.502-.697 1.502-1.829 0-2.526L2.72-82.787c-1.502-.697-3.94-.697-5.442 0L-178.38-1.263z" class="secondary" style="display:block" transform="translate(214.965 170.5)"/><path fill="none" stroke="#121330" stroke-linecap="round" stroke-linejoin="round" stroke-width="7" d="M-181.1 0 0 84.05 181.1 0 0-84.05-181.1 0z" class="primary" style="display:block" transform="translate(215 172.05)"/></g><g clip-path="url(#d)" style="display:none"><path class="secondary" style="display:none"/><path class="secondary" style="mix-blend-mode:multiply;display:none"/><path fill="none" class="primary" style="display:none"/><path class="tertiary" style="display:none"/><path class="tertiary" style="mix-blend-mode:multiply;display:none"/><path fill="none" class="primary" style="display:none"/><path class="secondary" style="display:none"/><path fill="none" class="primary" style="display:none"/></g></g></svg>